<svg width="400" height="300" viewBox="0 0 400 300" xmlns="http://www.w3.org/2000/svg">
  <!-- Background -->
  <rect width="400" height="300" fill="#f8fafc"/>
  
  <!-- Header -->
  <rect width="400" height="60" fill="#ffffff" stroke="#e2e8f0" stroke-width="1"/>
  
  <!-- Logo and title -->
  <rect x="18" y="18" width="24" height="24" rx="4" fill="#dbeafe"/>
  <rect x="22" y="22" width="16" height="12" rx="2" fill="#3b82f6"/>
  <rect x="24" y="26" width="12" height="1" fill="white"/>
  <rect x="24" y="28" width="8" height="1" fill="white"/>
  <rect x="24" y="30" width="10" height="1" fill="white"/>
  <text x="55" y="35" font-family="Arial, sans-serif" font-size="16" font-weight="bold" fill="#1e293b">Banco de Questões</text>
  
  <!-- Search bar -->
  <rect x="20" y="70" width="250" height="30" fill="#ffffff" rx="6" stroke="#cbd5e1" stroke-width="1"/>
  <text x="30" y="88" font-family="Arial, sans-serif" font-size="10" fill="#9ca3af">Buscar questões...</text>
  <rect x="240" y="75" width="20" height="20" fill="#f1f5f9" rx="4"/>
  
  <!-- Filter button -->
  <rect x="280" y="70" width="60" height="30" fill="#f1f5f9" rx="6" stroke="#cbd5e1" stroke-width="1"/>
  <text x="300" y="88" font-family="Arial, sans-serif" font-size="10" fill="#64748b">Filtros</text>
  
  <!-- Add question button -->
  <rect x="350" y="70" width="30" height="30" fill="#3b82f6" rx="6"/>
  <text x="360" y="88" font-family="Arial, sans-serif" font-size="12" fill="white">+</text>
  
  <!-- Main content -->
  <rect x="20" y="110" width="360" height="170" fill="#ffffff" rx="8" stroke="#e2e8f0" stroke-width="1"/>
  
  <!-- Question cards -->
  <!-- Question 1 -->
  <rect x="30" y="120" width="340" height="45" fill="#f8fafc" rx="6" stroke="#e2e8f0" stroke-width="1"/>
  <rect x="35" y="125" width="6" height="35" fill="#3b82f6" rx="3"/>
  <text x="50" y="135" font-family="Arial, sans-serif" font-size="10" font-weight="bold" fill="#374151">Anatomia Humana - Sistema Cardiovascular</text>
  <text x="50" y="148" font-family="Arial, sans-serif" font-size="8" fill="#6b7280">Qual é a função principal do ventrículo esquerdo?</text>
  
  <!-- Difficulty and type badges -->
  <rect x="280" y="125" width="35" height="15" fill="#fef3c7" rx="8"/>
  <text x="290" y="134" font-family="Arial, sans-serif" font-size="6" fill="#92400e">Média</text>
  
  <rect x="320" y="125" width="40" height="15" fill="#dbeafe" rx="8"/>
  <text x="330" y="134" font-family="Arial, sans-serif" font-size="6" fill="#1e40af">Múltipla</text>
  
  <text x="50" y="158" font-family="Arial, sans-serif" font-size="6" fill="#9ca3af">Criada em 15/01/2024</text>
  
  <!-- Question 2 -->
  <rect x="30" y="170" width="340" height="45" fill="#f8fafc" rx="6" stroke="#e2e8f0" stroke-width="1"/>
  <rect x="35" y="175" width="6" height="35" fill="#22c55e" rx="3"/>
  <text x="50" y="185" font-family="Arial, sans-serif" font-size="10" font-weight="bold" fill="#374151">Fisiologia - Sistema Respiratório</text>
  <text x="50" y="198" font-family="Arial, sans-serif" font-size="8" fill="#6b7280">Descreva o processo de hematose nos alvéolos pulmonares.</text>
  
  <!-- Difficulty and type badges -->
  <rect x="280" y="175" width="35" height="15" fill="#fecaca" rx="8"/>
  <text x="292" y="184" font-family="Arial, sans-serif" font-size="6" fill="#991b1b">Alta</text>
  
  <rect x="320" y="175" width="40" height="15" fill="#dcfce7" rx="8"/>
  <text x="328" y="184" font-family="Arial, sans-serif" font-size="6" fill="#166534">Dissertativa</text>
  
  <text x="50" y="208" font-family="Arial, sans-serif" font-size="6" fill="#9ca3af">Criada em 14/01/2024</text>
  
  <!-- Question 3 -->
  <rect x="30" y="220" width="340" height="45" fill="#f8fafc" rx="6" stroke="#e2e8f0" stroke-width="1"/>
  <rect x="35" y="225" width="6" height="35" fill="#f59e0b" rx="3"/>
  <text x="50" y="235" font-family="Arial, sans-serif" font-size="10" font-weight="bold" fill="#374151">Farmacologia - Antibióticos</text>
  <text x="50" y="248" font-family="Arial, sans-serif" font-size="8" fill="#6b7280">Qual o mecanismo de ação da penicilina?</text>
  
  <!-- Difficulty and type badges -->
  <rect x="280" y="225" width="35" height="15" fill="#dcfce7" rx="8"/>
  <text x="290" y="234" font-family="Arial, sans-serif" font-size="6" fill="#166534">Baixa</text>
  
  <rect x="320" y="225" width="40" height="15" fill="#dbeafe" rx="8"/>
  <text x="330" y="234" font-family="Arial, sans-serif" font-size="6" fill="#1e40af">Múltipla</text>
  
  <text x="50" y="258" font-family="Arial, sans-serif" font-size="6" fill="#9ca3af">Criada em 13/01/2024</text>
  
  <!-- Pagination -->
  <rect x="150" y="285" width="100" height="10" fill="#f1f5f9" rx="5"/>
  <text x="190" y="292" font-family="Arial, sans-serif" font-size="6" fill="#64748b">1 de 5 páginas</text>
</svg>