<svg width="400" height="300" viewBox="0 0 400 300" xmlns="http://www.w3.org/2000/svg">
  <!-- Background -->
  <rect width="400" height="300" fill="#f8fafc"/>
  
  <!-- Header -->
  <rect width="400" height="60" fill="#ffffff" stroke="#e2e8f0" stroke-width="1"/>
  
  <!-- Logo and title -->
  <rect x="18" y="18" width="24" height="24" rx="4" fill="#fef3c7"/>
  <circle cx="24" cy="26" r="3" fill="#f59e0b"/>
  <circle cx="30" cy="26" r="3" fill="#f59e0b"/>
  <circle cx="36" cy="26" r="3" fill="#f59e0b"/>
  <circle cx="27" cy="32" r="3" fill="#f59e0b"/>
  <circle cx="33" cy="32" r="3" fill="#f59e0b"/>
  <text x="55" y="35" font-family="Arial, sans-serif" font-size="16" font-weight="bold" fill="#1e293b">Comunidade</text>
  
  <!-- Create group button -->
  <rect x="280" y="20" width="100" height="20" fill="#f59e0b" rx="10"/>
  <text x="315" y="32" font-family="Arial, sans-serif" font-size="8" fill="white">Novo Grupo</text>
  
  <!-- Stats cards -->
  <rect x="20" y="70" width="80" height="50" fill="#fef3c7" rx="6" stroke="#f59e0b" stroke-width="1"/>
  <text x="25" y="85" font-family="Arial, sans-serif" font-size="8" fill="#92400e">Meus Grupos</text>
  <text x="25" y="105" font-family="Arial, sans-serif" font-size="16" font-weight="bold" fill="#92400e">5</text>
  
  <rect x="110" y="70" width="80" height="50" fill="#dcfce7" rx="6" stroke="#22c55e" stroke-width="1"/>
  <text x="115" y="85" font-family="Arial, sans-serif" font-size="8" fill="#166534">Membros Total</text>
  <text x="115" y="105" font-family="Arial, sans-serif" font-size="16" font-weight="bold" fill="#166534">127</text>
  
  <rect x="200" y="70" width="80" height="50" fill="#dbeafe" rx="6" stroke="#3b82f6" stroke-width="1"/>
  <text x="205" y="85" font-family="Arial, sans-serif" font-size="8" fill="#1e40af">Posts Hoje</text>
  <text x="205" y="105" font-family="Arial, sans-serif" font-size="16" font-weight="bold" fill="#1e40af">23</text>
  
  <rect x="290" y="70" width="90" height="50" fill="#fce7f3" rx="6" stroke="#ec4899" stroke-width="1"/>
  <text x="295" y="85" font-family="Arial, sans-serif" font-size="8" fill="#be185d">Ranking</text>
  <text x="295" y="105" font-family="Arial, sans-serif" font-size="16" font-weight="bold" fill="#be185d">#12</text>
  
  <!-- Main content -->
  <rect x="20" y="130" width="360" height="150" fill="#ffffff" rx="8" stroke="#e2e8f0" stroke-width="1"/>
  
  <!-- Section title -->
  <text x="30" y="150" font-family="Arial, sans-serif" font-size="12" font-weight="bold" fill="#374151">Grupos de Estudo</text>
  
  <!-- Group 1 -->
  <rect x="30" y="160" width="340" height="35" fill="#f8fafc" rx="6" stroke="#e2e8f0" stroke-width="1"/>
  <circle cx="45" cy="177" r="8" fill="#3b82f6"/>
  <text x="40" y="180" font-family="Arial, sans-serif" font-size="6" fill="white">AN</text>
  <text x="60" y="172" font-family="Arial, sans-serif" font-size="10" font-weight="bold" fill="#374151">Anatomia Humana - 2024.1</text>
  <text x="60" y="182" font-family="Arial, sans-serif" font-size="8" fill="#6b7280">32 membros • 5 posts hoje</text>
  <text x="60" y="190" font-family="Arial, sans-serif" font-size="6" fill="#9ca3af">Último post há 2h</text>
  
  <!-- Online indicator -->
  <circle cx="320" cy="170" r="4" fill="#22c55e"/>
  <text x="330" y="174" font-family="Arial, sans-serif" font-size="6" fill="#166534">8 online</text>
  
  <!-- Group 2 -->
  <rect x="30" y="200" width="340" height="35" fill="#f8fafc" rx="6" stroke="#e2e8f0" stroke-width="1"/>
  <circle cx="45" cy="217" r="8" fill="#22c55e"/>
  <text x="40" y="220" font-family="Arial, sans-serif" font-size="6" fill="white">FI</text>
  <text x="60" y="212" font-family="Arial, sans-serif" font-size="10" font-weight="bold" fill="#374151">Fisiologia Avançada</text>
  <text x="60" y="222" font-family="Arial, sans-serif" font-size="8" fill="#6b7280">28 membros • 3 posts hoje</text>
  <text x="60" y="230" font-family="Arial, sans-serif" font-size="6" fill="#9ca3af">Último post há 1h</text>
  
  <!-- Online indicator -->
  <circle cx="320" cy="210" r="4" fill="#22c55e"/>
  <text x="330" y="214" font-family="Arial, sans-serif" font-size="6" fill="#166534">12 online</text>
  
  <!-- Group 3 -->
  <rect x="30" y="240" width="340" height="35" fill="#f8fafc" rx="6" stroke="#e2e8f0" stroke-width="1"/>
  <circle cx="45" cy="257" r="8" fill="#f59e0b"/>
  <text x="40" y="260" font-family="Arial, sans-serif" font-size="6" fill="white">RE</text>
  <text x="60" y="252" font-family="Arial, sans-serif" font-size="10" font-weight="bold" fill="#374151">Residência Médica 2024</text>
  <text x="60" y="262" font-family="Arial, sans-serif" font-size="8" fill="#6b7280">67 membros • 15 posts hoje</text>
  <text x="60" y="270" font-family="Arial, sans-serif" font-size="6" fill="#9ca3af">Último post há 30min</text>
  
  <!-- Online indicator -->
  <circle cx="320" cy="250" r="4" fill="#22c55e"/>
  <text x="330" y="254" font-family="Arial, sans-serif" font-size="6" fill="#166534">25 online</text>
</svg>