<svg width="400" height="300" viewBox="0 0 400 300" xmlns="http://www.w3.org/2000/svg">
  <!-- Background -->
  <rect width="400" height="300" fill="#f8fafc"/>
  
  <!-- Header -->
  <rect width="400" height="60" fill="#ffffff" stroke="#e2e8f0" stroke-width="1"/>
  
  <!-- Logo and title -->
  <circle cx="30" cy="30" r="12" fill="#3b82f6"/>
  <rect x="18" y="18" width="24" height="24" rx="4" fill="#dbeafe"/>
  <text x="55" y="35" font-family="Arial, sans-serif" font-size="16" font-weight="bold" fill="#1e293b">Dashboard</text>
  
  <!-- Navigation icons -->
  <rect x="320" y="20" width="20" height="20" rx="4" fill="#f1f5f9" stroke="#cbd5e1" stroke-width="1"/>
  <rect x="350" y="20" width="20" height="20" rx="4" fill="#f1f5f9" stroke="#cbd5e1" stroke-width="1"/>
  
  <!-- Main content area -->
  <rect x="20" y="80" width="360" height="200" fill="#ffffff" rx="8" stroke="#e2e8f0" stroke-width="1"/>
  
  <!-- Stats cards -->
  <rect x="30" y="90" width="80" height="60" fill="#dbeafe" rx="6"/>
  <text x="35" y="105" font-family="Arial, sans-serif" font-size="10" fill="#1e40af">Disciplinas</text>
  <text x="35" y="125" font-family="Arial, sans-serif" font-size="18" font-weight="bold" fill="#1e40af">12</text>
  <rect x="35" y="130" width="8" height="8" fill="#3b82f6" rx="2"/>
  
  <rect x="120" y="90" width="80" height="60" fill="#dcfce7" rx="6"/>
  <text x="125" y="105" font-family="Arial, sans-serif" font-size="10" fill="#166534">Horas Estudo</text>
  <text x="125" y="125" font-family="Arial, sans-serif" font-size="18" font-weight="bold" fill="#166534">45.5</text>
  <rect x="125" y="130" width="8" height="8" fill="#22c55e" rx="2"/>
  
  <rect x="210" y="90" width="80" height="60" fill="#fef3c7" rx="6"/>
  <text x="215" y="105" font-family="Arial, sans-serif" font-size="10" fill="#92400e">Sequência</text>
  <text x="215" y="125" font-family="Arial, sans-serif" font-size="18" font-weight="bold" fill="#92400e">7 dias</text>
  <rect x="215" y="130" width="8" height="8" fill="#f59e0b" rx="2"/>
  
  <rect x="300" y="90" width="80" height="60" fill="#fce7f3" rx="6"/>
  <text x="305" y="105" font-family="Arial, sans-serif" font-size="10" fill="#be185d">Progresso</text>
  <text x="305" y="125" font-family="Arial, sans-serif" font-size="18" font-weight="bold" fill="#be185d">78%</text>
  <rect x="305" y="130" width="8" height="8" fill="#ec4899" rx="2"/>
  
  <!-- Study streak visualization -->
  <text x="30" y="175" font-family="Arial, sans-serif" font-size="12" font-weight="bold" fill="#374151">Sequência de Estudos</text>
  
  <!-- Week days -->
  <rect x="30" y="185" width="20" height="20" fill="#e5e7eb" rx="4"/>
  <text x="35" y="198" font-family="Arial, sans-serif" font-size="8" fill="#6b7280">D</text>
  
  <rect x="55" y="185" width="20" height="20" fill="#3b82f6" rx="4"/>
  <text x="60" y="198" font-family="Arial, sans-serif" font-size="8" fill="white">S</text>
  
  <rect x="80" y="185" width="20" height="20" fill="#3b82f6" rx="4"/>
  <text x="85" y="198" font-family="Arial, sans-serif" font-size="8" fill="white">T</text>
  
  <rect x="105" y="185" width="20" height="20" fill="#3b82f6" rx="4"/>
  <text x="110" y="198" font-family="Arial, sans-serif" font-size="8" fill="white">Q</text>
  
  <rect x="130" y="185" width="20" height="20" fill="#3b82f6" rx="4"/>
  <text x="135" y="198" font-family="Arial, sans-serif" font-size="8" fill="white">Q</text>
  
  <rect x="155" y="185" width="20" height="20" fill="#3b82f6" rx="4"/>
  <text x="160" y="198" font-family="Arial, sans-serif" font-size="8" fill="white">S</text>
  
  <rect x="180" y="185" width="20" height="20" fill="#10b981" rx="4"/>
  <text x="185" y="198" font-family="Arial, sans-serif" font-size="8" fill="white">S</text>
  
  <!-- Quick actions -->
  <text x="30" y="230" font-family="Arial, sans-serif" font-size="12" font-weight="bold" fill="#374151">Ações Rápidas</text>
  
  <rect x="30" y="240" width="100" height="30" fill="#3b82f6" rx="6"/>
  <text x="50" y="258" font-family="Arial, sans-serif" font-size="10" fill="white">Nova Sessão</text>
  
  <rect x="140" y="240" width="100" height="30" fill="#10b981" rx="6"/>
  <text x="165" y="258" font-family="Arial, sans-serif" font-size="10" fill="white">Flashcards</text>
  
  <rect x="250" y="240" width="100" height="30" fill="#f59e0b" rx="6"/>
  <text x="275" y="258" font-family="Arial, sans-serif" font-size="10" fill="white">Simulado</text>
</svg>